<svg t="1687170172977" class="icon" viewBox="0 0 1024 1024" version="1.1"
  xmlns="http://www.w3.org/2000/svg" p-id="3287" width="16" height="16">
  <path
    d="M905.972 459.566h-28c-15.463 0-28 12.537-28 28s12.537 28 28 28h28c15.463 0 28-12.538 28-28S921.435 459.566 905.972 459.566z"
    fill="#E7F8FF" p-id="3288"></path>
  <path
    d="M149.972 459.566h-28c-15.463 0-28 12.537-28 28s12.537 28 28 28h28c15.463 0 28-12.538 28-28S165.435 459.566 149.972 459.566z"
    fill="#E7F8FF" p-id="3289"></path>
  <path
    d="M506.534 144.128c15.463 0 28-12.537 28-28v-28c0-15.463-12.537-28-28-28s-28 12.537-28 28v28C478.534 131.591 491.071 144.128 506.534 144.128z"
    fill="#E7F8FF" p-id="3290"></path>
  <path
    d="M513.972 172.074c-170.105 0-308 137.895-308 308 0 170.106 137.895 308 308 308s308-137.895 308-308C821.972 309.969 684.077 172.074 513.972 172.074zM513.972 732.074c-139.18 0-252-112.82-252-252 0-139.179 112.82-252 252-252s252 112.821 252 252C765.972 619.254 653.151 732.074 513.972 732.074z"
    fill="#E7F8FF" p-id="3291"></path>
  <path
    d="M791.155 242.539l19.797-19.797c10.938-10.938 10.938-28.67 0-39.601-10.938-10.938-28.656-10.931-39.594 0.007l-19.797 19.797c-10.938 10.938-10.938 28.656 0 39.594C762.485 253.469 780.218 253.476 791.155 242.539z"
    fill="#E7F8FF" p-id="3292"></path>
  <path
    d="M236.788 242.539c10.931 10.924 28.664 10.924 39.594 0 10.938-10.938 10.931-28.67 0-39.594l-19.797-19.797c-10.938-10.938-28.663-10.951-39.601-0.014-10.931 10.923-10.931 28.67 0.007 39.607L236.788 242.539z"
    fill="#E7F8FF" p-id="3293"></path>
  <path
    d="M555.972 900.129h-84c-15.463 0-28 12.537-28 28s12.537 28 28 28h84c15.463 0 28-12.537 28-28S571.435 900.129 555.972 900.129z"
    fill="#E7F8FF" p-id="3294"></path>
  <path
    d="M597.972 817.031h-168c-15.463 0-28 12.537-28 28s12.537 28 28 28h168c15.463 0 28-12.537 28-28S613.435 817.031 597.972 817.031z"
    fill="#E7F8FF" p-id="3295"></path>
</svg>